<svg xmlns="http://www.w3.org/2000/svg" xmlns:xlink="http://www.w3.org/1999/xlink" viewBox="0 0 193.92 54.27"><defs><mask id="mask" x="0" y="28.95" width="39.29" height="25.32" maskUnits="userSpaceOnUse"><g id="mask-13354"><polygon id="path-13353" points="39.29 54.27 0 54.27 0 28.95 39.29 28.95 39.29 54.27" style="fill:#fff"/></g></mask></defs><title>bc_footer-logo</title><g id="Layer_2" data-name="Layer 2"><g id="Layer_1-2" data-name="Layer 1"><g id="Page-1"><g id="Group-3"><g style="mask:url(#mask)"><path id="Fill-1" d="M38.8,50.82,21.34,29.71a2.14,2.14,0,0,0-1.6-.76,2.2,2.2,0,0,0-1.6.76L.5,50.83a2.08,2.08,0,0,0,.24,2.94,2,2,0,0,0,2.92-.25L19.71,34.31,35.59,53.48a2.11,2.11,0,0,0,1.6.78,2.15,2.15,0,0,0,1.36-.49,2.11,2.11,0,0,0,.25-3" style="fill:#6d6d6d"/></g></g><path id="Fill-4" d="M32.74,4.19,19.57,20,6.52,4.19ZM18,24.55a2.09,2.09,0,0,0,1.59.76,2,2,0,0,0,1.6-.76L38.8,3.43a2.14,2.14,0,0,0,.3-2.21A2.1,2.1,0,0,0,37.19,0H2.07A2,2,0,0,0,.2,1.19,2.16,2.16,0,0,0,.47,3.43Z" style="fill:#6d6d6d"/><path id="Fill-6" d="M61.57,30.66a2.87,2.87,0,0,0-.19-1.05,3.1,3.1,0,0,0-.53-.9,2.61,2.61,0,0,0-.78-.62,2.22,2.22,0,0,0-1-.22H53.29v5.54h5.62a2.36,2.36,0,0,0,1-.22,3.19,3.19,0,0,0,.85-.6,2.78,2.78,0,0,0,.57-.88,2.88,2.88,0,0,0,.2-1.05ZM53.3,20.83v5.38h5.13a2.33,2.33,0,0,0,1-.21,2.65,2.65,0,0,0,.79-.58,2.7,2.7,0,0,0,.52-.85,2.79,2.79,0,0,0,.2-1,3,3,0,0,0-.18-1.06,2.58,2.58,0,0,0-.49-.86,2.11,2.11,0,0,0-.75-.57,2,2,0,0,0-.94-.21ZM63.64,31a3.69,3.69,0,0,1-.38,1.7,4,4,0,0,1-1,1.32,4.84,4.84,0,0,1-1.49.84,5.49,5.49,0,0,1-1.83.3H51.26V19.05h8a3.15,3.15,0,0,1,1.53.37,3.77,3.77,0,0,1,1.15.94,4.17,4.17,0,0,1,.74,1.32,4.44,4.44,0,0,1-.33,3.71,3.82,3.82,0,0,1-1.72,1.53,4,4,0,0,1,2.19,1.51,4.32,4.32,0,0,1,.8,2.6Z" style="fill:#6d6d6d"/><path id="Fill-8" d="M68.56,27.58h4.89a2.44,2.44,0,0,0,1.15-.27,2.72,2.72,0,0,0,.88-.74,3.48,3.48,0,0,0,.57-1.08,3.85,3.85,0,0,0,.21-1.27A3.6,3.6,0,0,0,76,22.94a3.75,3.75,0,0,0-.64-1.06,2.78,2.78,0,0,0-.94-.73,2.4,2.4,0,0,0-1.12-.26H68.57v6.69Zm-2,7.61V19.05h6.91a4.44,4.44,0,0,1,2,.44,5,5,0,0,1,1.54,1.18,5.86,5.86,0,0,1,1,1.65,5.2,5.2,0,0,1,.37,1.88,5.5,5.5,0,0,1-.25,1.63,4.91,4.91,0,0,1-.68,1.42,4.85,4.85,0,0,1-1.07,1.1,4.41,4.41,0,0,1-1.4.66l3.91,6.18H76.51l-3.68-5.8H68.56v5.8Z" style="fill:#6d6d6d"/><path id="Fill-10" d="M82.57,27.12A7.12,7.12,0,0,0,83,29.5a6.57,6.57,0,0,0,1.12,2A5.59,5.59,0,0,0,85.84,33a5,5,0,0,0,2.27.52,4.8,4.8,0,0,0,2.32-.56,5.84,5.84,0,0,0,1.74-1.46,6.46,6.46,0,0,0,1.09-2,7.19,7.19,0,0,0,0-4.67,6.34,6.34,0,0,0-1.14-2,5.91,5.91,0,0,0-1.75-1.4,4.81,4.81,0,0,0-2.24-.53,4.93,4.93,0,0,0-2.32.54,5.73,5.73,0,0,0-1.73,1.43,6.61,6.61,0,0,0-1.11,2,7.64,7.64,0,0,0-.38,2.34m5.52,8.18a6.92,6.92,0,0,1-3.1-.69,7.77,7.77,0,0,1-2.4-1.84,8.25,8.25,0,0,1-1.54-2.63,8.54,8.54,0,0,1,0-6.11,8.62,8.62,0,0,1,1.6-2.62A7.72,7.72,0,0,1,85.1,19.6a7.08,7.08,0,0,1,3-.67,6.65,6.65,0,0,1,3.1.72,7.81,7.81,0,0,1,2.38,1.88,8.67,8.67,0,0,1,1.54,2.63,8.59,8.59,0,0,1-1.62,8.68,7.73,7.73,0,0,1-2.42,1.8,6.93,6.93,0,0,1-3,.66" style="fill:#6d6d6d"/><polygon id="Fill-12" points="103.87 19.15 105.8 19.15 107.94 24.77 110.1 19.15 112.04 19.15 109.24 26.17 112.02 32.82 117.48 19.05 119.7 19.05 112.95 35.19 111.18 35.19 107.97 27.57 104.75 35.19 102.97 35.19 96.23 19.05 98.43 19.05 103.91 32.82 106.66 26.17 103.87 19.15" style="fill:#6d6d6d"/><polygon id="Fill-14" points="123.84 22.87 123.84 35.19 121.8 35.19 121.8 19.05 123.39 19.05 133.39 31.63 133.39 19.07 135.44 19.07 135.44 35.19 133.71 35.19 123.84 22.87" style="fill:#6d6d6d"/><path id="Fill-16" d="M138.28,27a8.65,8.65,0,0,1,.51-2.9,8.09,8.09,0,0,1,1.5-2.59,7.54,7.54,0,0,1,2.42-1.85A7.25,7.25,0,0,1,146,19a6.82,6.82,0,0,1,3.71,1,6.24,6.24,0,0,1,2.3,2.54l-1.62,1.05a4.72,4.72,0,0,0-.88-1.3,4.64,4.64,0,0,0-1.11-.84,4.49,4.49,0,0,0-1.25-.46,6,6,0,0,0-1.25-.14,4.91,4.91,0,0,0-2.37.56,5.39,5.39,0,0,0-1.74,1.46,6.2,6.2,0,0,0-1.06,2,7.66,7.66,0,0,0-.35,2.26,7,7,0,0,0,.42,2.42,6.74,6.74,0,0,0,1.17,2A5.63,5.63,0,0,0,143.7,33a4.79,4.79,0,0,0,2.23.53,5.92,5.92,0,0,0,1.3-.16,4.48,4.48,0,0,0,1.29-.52,5.58,5.58,0,0,0,1.15-.88,4.57,4.57,0,0,0,.87-1.29l1.71.94a5.19,5.19,0,0,1-1.08,1.6,6.76,6.76,0,0,1-1.57,1.17,8.48,8.48,0,0,1-1.85.73,8.08,8.08,0,0,1-1.91.25,6.45,6.45,0,0,1-3.05-.73,8.37,8.37,0,0,1-2.4-1.9,8.61,8.61,0,0,1-1.57-2.65,9.25,9.25,0,0,1-.54-3" style="fill:#6d6d6d"/><path id="Fill-18" d="M160.4,21.42l-3,7.46h5.91Zm-7.48,13.77,6.64-16.14h1.68l6.62,16.14h-2.18l-1.91-4.73H157l-1.89,4.73Z" style="fill:#6d6d6d"/><polygon id="Fill-20" points="180.08 20.87 174.51 20.87 174.51 35.19 172.46 35.19 172.46 20.87 166.89 20.87 166.89 19.05 180.07 19.05 180.07 20.87 180.08 20.87" style="fill:#6d6d6d"/><polygon id="Fill-22" points="181.13 33.6 191.54 20.87 181.33 20.87 181.33 19.05 193.92 19.05 193.92 20.64 183.69 33.38 193.92 33.38 193.92 35.2 181.13 35.2 181.13 33.6" style="fill:#6d6d6d"/></g></g></g></svg>