<?xml version="1.0" encoding="utf-8"?>
<!-- Generator: Adobe Illustrator 22.1.0, SVG Export Plug-In . SVG Version: 6.00 Build 0)  -->
<svg version="1.1" id="Layer_1" xmlns="http://www.w3.org/2000/svg" xmlns:xlink="http://www.w3.org/1999/xlink" x="0px" y="0px"
	 viewBox="0 0 91.5 127.8" style="enable-background:new 0 0 91.5 127.8;" xml:space="preserve">
<style type="text/css">
	.st0{fill:#C6947A;}
</style>
<title>skinfinity_symbol</title>
<g>
	<path class="st0" d="M8.8,24.4c0.2,0.1,0.4,0.2,0.7,0.2c0,0,0,0,0,0c0.5,0,1-0.3,1.2-0.7C21,5.7,45.4,0.5,62.1,6.2
		c6,2,11.6,5.4,16,9.9c0.5,0.6,1.4,0.7,2,0.2c0.3-0.2,0.5-0.6,0.5-1c0-0.4-0.1-0.7-0.3-1c0,0-0.1-0.1-0.1-0.1
		C75.4,9.3,69.4,5.6,63,3.5C53,0.2,42.5,0.1,32.5,3.2c-10.2,3.2-18.8,10-24.2,19.2C7.9,23.1,8.1,24,8.8,24.4z"/>
	<path class="st0" d="M25.4,65.8c-8,4.6-12.7,10.1-14.2,16.9c-0.7,2.8-0.6,5.8,0.1,8.7l0.6,2.1c0.7,2.1,1.7,4.1,2.9,5.9
		c0.3,0.4,0.7,0.6,1.2,0.6c0.3,0,0.5-0.1,0.8-0.2c0.6-0.4,0.8-1.3,0.4-2c-1.1-1.6-1.9-3.4-2.6-5.2l-0.6-2c-0.6-2.4-0.6-4.9-0.1-7.3
		c1.5-6.4,6.1-11.5,14.5-16c3.1,1.5,5.8,2.5,7.8,3.3l0.6,0.2l0.2,0l0.5,0.2c1.3,0.5,2.7,1,4,1.6l0.3,0.1c9.3,3.6,19.8,7.6,21.2,13.8
		c0.1,0.6,0.7,1.1,1.4,1.1l0.3,0c0.4-0.1,0.7-0.3,0.9-0.6c0.2-0.3,0.3-0.7,0.2-1.1l0-0.1l0,0C64.1,78.4,52.8,74,42.9,70.2
		c-1.7-0.7-3.1-1.2-4.3-1.7l-0.7-0.3C30.7,65.5,8.6,57,7.4,39.3c-0.1-2.7,0.2-5.3,0.8-7.9c0.2-0.7-0.2-1.6-0.9-1.8
		c-0.7-0.2-1.6,0.2-1.8,0.9c0,0.1,0,0.1,0,0.2c-0.7,2.9-1,5.8-0.9,8.8C5.3,50,12.3,58.8,25.4,65.8z"/>
	<path class="st0" d="M46.4,101.8c6.2,0.2,12.1-2.3,16.2-6.9c0.5-0.6,0.5-1.5-0.1-2c-0.3-0.3-0.6-0.4-1-0.4c-0.4,0-0.7,0.2-1,0.4
		c-4.2,4.4-8.9,6.2-15.4,5.9c-6.4-0.3-12.6-3-16.1-6.9c-0.5-0.6-1.4-0.6-2-0.1c-0.6,0.5-0.8,1.4-0.3,2c0.1,0.1,0.1,0.1,0.2,0.2
		c4,4.4,11.1,7.5,18.1,7.8l0-0.2v0.2H46.4z"/>
	<path class="st0" d="M89.5,81L89.5,81C86.1,65.1,73.4,57.3,64,52.8c2.8-1.5,8.6-5.4,11.3-12.1c1.8-4.6,1.8-8.3,0-12.4
		c-0.3-0.7-1.2-1-1.9-0.7c-0.3,0.2-0.6,0.4-0.7,0.8c-0.1,0.4-0.1,0.7,0,1.1c1.5,3.4,1.5,6.2,0,10.1c-2.3,5.8-7.7,9.8-12,11.6
		c-3.1-1.3-6-2.5-9-3.6c-0.9-0.5-2.2-1-3.6-1.6l-0.4-0.2c-4.9-2-11.6-4.7-13-8.7c-0.5-1.6-0.2-3.4,0.7-4.8c1.3-2.3,3.5-3.9,6.1-4.5
		c5.4-1.3,12,1.2,15.1,3.2c0.7,0.4,1.5,0.2,2-0.4c0.4-0.7,0.2-1.5-0.4-2c-3-1.9-10.5-5.1-17.3-3.6c-3.3,0.7-6.2,2.8-8,5.8
		c-1.4,2.1-1.7,4.8-1,7.2c1.8,5.2,9.2,8.2,14.7,10.4c1.5,0.6,2.9,1.2,3.8,1.6l0.2,0c12.8,4.9,32.1,12.3,36.2,31.4
		c2,9.2-0.6,18.7-7.2,26.7c-8.3,10.1-21.3,15.9-34.9,15.7C26.3,123.6,9.6,112.8,4,97.6c-0.2-0.8-1-1.2-1.7-1c-0.8,0.2-1.2,1-1,1.7
		c0,0.1,0.1,0.2,0.1,0.2c5.9,16.3,23.7,27.9,43.3,28.3h0.9c0.1,0,0.1,0,0.2,0c14,0,27.1-6.1,36.1-16.8C89,101.4,91.7,91.1,89.5,81z"
		/>
	<path class="st0" d="M44.5,15.7c8.2-0.5,18.1,2.8,23.6,7.7c0.6,0.5,1.5,0.5,2-0.1c0.5-0.6,0.5-1.5-0.1-2c-6-5.3-16.8-8.9-25.6-8.4
		c-8.8,0.5-17.4,4.4-22.4,10.1c-3.8,4.3-5.7,10-5.1,15.8C18.2,50.5,34.1,56.9,41,59.6l1.1,0.4c1.6,0.6,2.9,1.1,4.1,1.6l0.1,0
		c11.5,4.4,25.9,9.9,28.6,22.6c1.2,5.5-0.5,11.3-4.7,16.4c-5.9,7.1-15.6,11.5-25.3,11.3c-9-0.2-16.6-2.9-22.5-8.2
		c-0.6-0.5-1.5-0.5-2,0.1c-0.5,0.6-0.5,1.5,0.1,2c6.5,5.7,14.7,8.7,24.4,8.9h0.6c10.4,0,20.7-4.7,26.9-12.3
		c4.8-5.8,6.6-12.5,5.3-18.9c-3-14.1-18.2-20-30.4-24.6l-0.1,0c-1.4-0.5-2.8-1.1-4.1-1.6L42,56.9c-5.8-2.3-21.2-8.4-22.4-18.5
		c-0.5-4.9,1.1-9.9,4.4-13.6C28.6,19.6,36.4,16.1,44.5,15.7z"/>
</g>
</svg>
