<svg xmlns="http://www.w3.org/2000/svg" viewBox="0 0 398.18 299.02"><title>skinfinity-footer_logo</title><g id="Layer_2" data-name="Layer 2"><g id="Layer_1-2" data-name="Layer 1"><path d="M161.54,23.38a1.16,1.16,0,0,0,.59.16,1.19,1.19,0,0,0,1-.61c10.44-18.54,35.16-24,52.62-18.09A40.8,40.8,0,0,1,232.18,15a1.2,1.2,0,0,0,1.73-1.66,43.29,43.29,0,0,0-17.35-10.8,50.07,50.07,0,0,0-30.89-.26,43.34,43.34,0,0,0-24.58,19.44A1.19,1.19,0,0,0,161.54,23.38Z" style="fill:#dbdbdb"/><path d="M178.86,65.87c-8.37,4.71-13.21,10.39-14.78,17.32a18.54,18.54,0,0,0,.09,8.66l.62,2.14a26.92,26.92,0,0,0,2.9,6,1.2,1.2,0,1,0,2-1.3,24.08,24.08,0,0,1-2.62-5.38l-.58-2a16.09,16.09,0,0,1-.08-7.55c1.51-6.69,6.29-11.94,15-16.53,3.51,1.69,6.63,2.89,8.66,3.67l.14.05.56.22c1.41.56,2.87,1.12,4.39,1.7,9.53,3.66,20.34,7.79,21.73,14.26a1.2,1.2,0,0,0,1.17,1l.25,0a1.2,1.2,0,0,0,.92-1.42c-1.66-7.74-13.11-12.12-23.22-16l-4.35-1.69-.59-.23-.15-.06c-7.42-2.85-30-11.53-31.22-29.75a29.85,29.85,0,0,1,.89-8.13,1.2,1.2,0,0,0-2.32-.6,31.45,31.45,0,0,0-.95,8.89C158.25,52.37,169.36,60.85,178.86,65.87Z" style="fill:#dbdbdb"/><path d="M198.34,102.32l1.36,0c6.64,0,11.85-2.1,16.37-6.9a1.2,1.2,0,0,0-1.75-1.64c-4.38,4.66-9.28,6.43-15.86,6.12s-13-3.1-16.57-7.09a1.21,1.21,0,0,0-1.7-.08,1.2,1.2,0,0,0-.08,1.69C184.14,98.89,191.29,102,198.34,102.32Z" style="fill:#dbdbdb"/><path d="M243.47,81.39c-3.26-15.17-15-23.45-26.37-28.85,4.49-2.34,9.49-6.57,11.81-12.43,1.74-4.37,1.92-8.07,0-12.41a1.2,1.2,0,0,0-2.19,1c1.7,3.79,1.51,6.74,0,10.55-2.39,6-8,10.15-12.45,12-3.25-1.42-6.41-2.64-9.27-3.73-1.07-.54-2.47-1.11-4.09-1.75-5-2-12-4.79-13.44-9a6,6,0,0,1,.76-5.13A10,10,0,0,1,194.64,27c5.56-1.3,12.37,1.25,15.59,3.29a1.2,1.2,0,0,0,1.28-2c-3.06-1.94-10.65-5.18-17.41-3.59a12.29,12.29,0,0,0-8,5.79,8.45,8.45,0,0,0-.95,7.13C187,42.79,194.52,45.79,200,48c1.59.64,3,1.19,3.94,1.69l.12,0c13.09,5,32.88,12.59,37.07,32.17,2,9.45-.58,19.19-7.35,27.42-8.48,10.3-22,16.33-35.8,16.11-18.83-.34-36-11.46-41.66-27a1.19,1.19,0,0,0-1.53-.71,1.2,1.2,0,0,0-.72,1.53c6,16.49,24.07,28.26,43.87,28.62h.87a48,48,0,0,0,36.82-17C242.86,102,245.65,91.57,243.47,81.39Z" style="fill:#dbdbdb"/><path d="M197.76,14.46c8.37-.47,18.54,2.82,24.21,7.85a1.2,1.2,0,0,0,1.59-1.79c-6.09-5.41-17-9-25.94-8.45S180,16.51,175,22.32a21,21,0,0,0-5.14,15.86c1.39,11.91,17.57,18.29,24.48,21l1.09.43c1.35.54,2.77,1.08,4.23,1.64,11.85,4.54,26.61,10.19,29.4,23.21,1.22,5.69-.49,11.72-4.81,17-6,7.34-16,11.78-26,11.6-9.18-.16-17-2.91-23.15-8.37a1.2,1.2,0,1,0-1.58,1.8c6.63,5.85,14.92,8.79,24.68,9h.63c10.51,0,20.92-4.74,27.29-12.48,4.79-5.83,6.68-12.57,5.3-19-3.06-14.29-18.49-20.2-30.89-24.94l-4.19-1.63-1.1-.44c-5.95-2.35-21.76-8.58-23-19a18.38,18.38,0,0,1,4.57-14C181.42,18.55,189.46,14.94,197.76,14.46Z" style="fill:#dbdbdb"/><path d="M50.05,205.5a1.3,1.3,0,0,0-1.3,1.3v66.05a1.3,1.3,0,0,0,2.59,0V206.8A1.3,1.3,0,0,0,50.05,205.5Z" style="fill:#dbdbdb"/><path d="M76.83,224.85a1.31,1.31,0,0,0-1.84.21L54.8,250.41a1.32,1.32,0,0,0,.21,1.84,1.33,1.33,0,0,0,1.85-.21L77,226.69A1.31,1.31,0,0,0,76.83,224.85Z" style="fill:#dbdbdb"/><path d="M68,248.92a1.3,1.3,0,0,0-2.18,1.41l15,23.25A1.29,1.29,0,1,0,83,272.17Z" style="fill:#dbdbdb"/><path d="M12.48,247.37l.11,0a1.25,1.25,0,0,0,.43.07,1.27,1.27,0,0,0,1.19-.83,1.24,1.24,0,0,0-.76-1.6l-.11,0c-5.47-2-9.43-3.41-9.87-7.38a7.79,7.79,0,0,1,1.94-5.77,14.19,14.19,0,0,1,9.44-4.69c6.86-.58,13,3.15,13.64,8.34a1.27,1.27,0,0,0,1.42,1.08A1.25,1.25,0,0,0,31,235.2c-.83-6.5-8.17-11.21-16.37-10.51a16.6,16.6,0,0,0-11.18,5.59A10.09,10.09,0,0,0,1,237.91C1.56,243.43,6.73,245.33,12.48,247.37Z" style="fill:#dbdbdb"/><path d="M20.93,247.64a1.28,1.28,0,0,0-1.65.76,1.3,1.3,0,0,0,.76,1.65c6,2.2,8.79,3.92,9.82,8.31a9.65,9.65,0,0,1-2.26,8.15,13.93,13.93,0,0,1-11,5.06c-6.85-.17-11.23-2.94-14.18-9A1.28,1.28,0,0,0,.72,262a1.28,1.28,0,0,0-.59,1.71c3.38,6.94,8.6,10.26,16.43,10.45h.38a16.4,16.4,0,0,0,12.65-6,12.14,12.14,0,0,0,2.77-10.35C31,251.78,26.55,249.71,20.93,247.64Z" style="fill:#dbdbdb"/><path d="M99.17,224.62h0a1.3,1.3,0,0,0-1.29,1.3v47a1.3,1.3,0,0,0,1.29,1.3h0a1.3,1.3,0,0,0,1.3-1.29v-47A1.3,1.3,0,0,0,99.17,224.62Z" style="fill:#dbdbdb"/><circle cx="99.17" cy="217.1" r="2.11" style="fill:#dbdbdb"/><path d="M303.31,224.62h0a1.3,1.3,0,0,0-1.3,1.3v46.89a1.3,1.3,0,0,0,1.29,1.31h0a1.29,1.29,0,0,0,1.29-1.29v-46.9A1.3,1.3,0,0,0,303.31,224.62Z" style="fill:#dbdbdb"/><circle cx="303.41" cy="217.14" r="2.11" style="fill:#dbdbdb"/><path d="M245.29,224.62a1.3,1.3,0,0,0-1.3,1.3v46.91a1.3,1.3,0,0,0,2.59,0V225.92A1.3,1.3,0,0,0,245.29,224.62Z" style="fill:#dbdbdb"/><path d="M281.41,244c0-10.58-8.32-19.2-18.53-19.2a17.94,17.94,0,0,0-11.29,4,1.3,1.3,0,0,0,1.61,2,15.37,15.37,0,0,1,9.68-3.41c8.79,0,15.94,7.44,15.94,16.59a1.11,1.11,0,0,0,0,.19.34.34,0,0,0,0,.1v28.53a1.3,1.3,0,1,0,2.59,0V244.24a1.23,1.23,0,0,0,0-.19S281.41,244,281.41,244Z" style="fill:#dbdbdb"/><path d="M122.19,224.62a1.29,1.29,0,0,0-1.29,1.29v46.92a1.3,1.3,0,0,0,2.59,0V225.91A1.3,1.3,0,0,0,122.19,224.62Z" style="fill:#dbdbdb"/><path d="M158.19,243.87c0-10.61-8.28-19.25-18.45-19.25a17.8,17.8,0,0,0-11.25,4,1.31,1.31,0,0,0-.21,1.83,1.27,1.27,0,0,0,1.81.21,15.33,15.33,0,0,1,9.65-3.42c8.75,0,15.87,7.47,15.87,16.64a1.11,1.11,0,0,0,0,.19s0,.07,0,.1v28.61a1.29,1.29,0,1,0,2.58,0V244.16a1.23,1.23,0,0,0,0-.19S158.19,243.91,158.19,243.87Z" style="fill:#dbdbdb"/><path d="M222.16,214.94a2.12,2.12,0,1,0,2.12,2.12A2.12,2.12,0,0,0,222.16,214.94Z" style="fill:#dbdbdb"/><path d="M222.16,224.77h0a1.29,1.29,0,0,0-1.29,1.29l0,46.78a1.3,1.3,0,0,0,1.29,1.3h0a1.29,1.29,0,0,0,1.29-1.29l0-46.77A1.3,1.3,0,0,0,222.16,224.77Z" style="fill:#dbdbdb"/><path d="M202,202.9a23.17,23.17,0,0,0-23.32,23v71.86a1.29,1.29,0,0,0,2.58,0V225.86A20.59,20.59,0,0,1,202,205.48a20.82,20.82,0,0,1,14.17,5.5,1.31,1.31,0,0,0,1.83-.08,1.28,1.28,0,0,0-.08-1.82A23.45,23.45,0,0,0,202,202.9Z" style="fill:#dbdbdb"/><path d="M200.78,238.15H188a1.3,1.3,0,0,0,0,2.59h12.8a1.3,1.3,0,0,0,0-2.59Z" style="fill:#dbdbdb"/><path d="M326.54,205.61a1.3,1.3,0,0,0-1.3,1.29v66a1.3,1.3,0,0,0,2.59,0v-66A1.29,1.29,0,0,0,326.54,205.61Z" style="fill:#dbdbdb"/><path d="M346.83,224.6l-12.24.05a1.3,1.3,0,1,0,0,2.59h0l12.24,0a1.31,1.31,0,1,0,0-2.61Z" style="fill:#dbdbdb"/><path d="M377.52,273.77s0-.08,0-.11l0-.1a.88.88,0,0,0-.05-.15v0l-21.57-48a1.29,1.29,0,1,0-2.35,1.08L375,274.17l0,23.54a1.3,1.3,0,1,0,2.59,0l0-23.77v0C377.53,273.87,377.52,273.82,377.52,273.77Z" style="fill:#dbdbdb"/><path d="M397.36,224.73a1.34,1.34,0,0,0-1.76.69l-17.18,39a1.28,1.28,0,0,0,.71,1.71,1.37,1.37,0,0,0,.52.1,1.34,1.34,0,0,0,1.24-.79l17.18-39A1.28,1.28,0,0,0,397.36,224.73Z" style="fill:#dbdbdb"/></g></g></svg>